<?xml version="1.0" standalone="no"?>
<!DOCTYPE svg PUBLIC "-//W3C//DTD SVG 20010904//EN"
 "http://www.w3.org/TR/2001/REC-SVG-20010904/DTD/svg10.dtd">
<svg version="1.0" xmlns="http://www.w3.org/2000/svg"
 width="700.000000pt" height="700.000000pt" viewBox="0 0 700.000000 700.000000"
 preserveAspectRatio="xMidYMid meet">
<metadata>
Created by potrace 1.14, written by Peter Selinger 2001-2017
</metadata>
<g transform="translate(0.000000,700.000000) scale(0.100000,-0.100000)"
fill="#000000" stroke="none">
<path d="M2985 5609 c-532 -37 -1041 -126 -1475 -258 -253 -77 -282 -90 -293
-131 -14 -53 -1 -969 17 -1210 36 -475 79 -779 151 -1076 236 -965 914 -1805
1819 -2255 76 -38 174 -82 218 -99 l78 -30 83 31 c118 46 383 183 516 268 679
432 1180 1064 1437 1814 133 390 211 905 244 1627 11 240 12 901 1 940 -6 21
-24 31 -110 63 -429 157 -1051 275 -1679 317 -177 12 -830 11 -1007 -1z m965
-1259 l0 -530 530 0 530 0 0 -455 0 -455 -530 0 -530 0 0 -530 0 -530 -455 0
-455 0 0 530 0 530 -530 0 -530 0 0 455 0 455 530 0 530 0 0 530 0 530 455 0
455 0 0 -530z"/>
</g>
</svg>
